<?xml version="1.0" encoding="UTF-8" standalone="no"?>
<svg
   viewBox="0 0 593.08134 601.96843"
   version="1.1"
   class=""
   id="svg11"
   sodipodi:docname="lantux-navlux.svg"
   width="593.08136"
   height="601.96844"
   inkscape:version="1.3.2 (091e20ef0f, 2023-11-25)"
   xmlns:inkscape="http://www.inkscape.org/namespaces/inkscape"
   xmlns:sodipodi="http://sodipodi.sourceforge.net/DTD/sodipodi-0.dtd"
   xmlns="http://www.w3.org/2000/svg"
   xmlns:svg="http://www.w3.org/2000/svg">
  <defs
     id="defs11" />
  <sodipodi:namedview
     id="namedview11"
     pagecolor="#ffffff"
     bordercolor="#000000"
     borderopacity="0.25"
     inkscape:showpageshadow="2"
     inkscape:pageopacity="0.0"
     inkscape:pagecheckerboard="0"
     inkscape:deskcolor="#d1d1d1"
     inkscape:zoom="0.90673828"
     inkscape:cx="634.69252"
     inkscape:cy="647.92676"
     inkscape:window-width="3840"
     inkscape:window-height="2087"
     inkscape:window-x="0"
     inkscape:window-y="0"
     inkscape:window-maximized="1"
     inkscape:current-layer="svg11" />
  <rect
     fill="#ffffff"
     width="593.08136"
     height="601.96844"
     x="0"
     y="0"
     id="rect1"
     style="stroke-width:0.291752" />
  <g
     transform="matrix(2.1116365,0,0,2.1116365,19.228224,25.37104)"
     id="g2">
    <path
       d="m 64,0 h 64 V 128 H 64 C 28.6538,128 0,99.3462 0,64 0,28.6538 28.6538,0 64,0 Z"
       fill="#ee5432"
       id="path1" />
    <line
       x1="64"
       y1="2.1855699e-08"
       x2="64"
       y2="128"
       stroke="#ffffff"
       fill="none"
       stroke-width="3.58019px"
       stroke-linecap="square"
       id="line1" />
    <line
       x1="32"
       y1="2.1855699e-08"
       x2="32"
       y2="128"
       stroke="#ffffff"
       fill="none"
       stroke-width="3.58019px"
       stroke-linecap="square"
       id="line2" />
    <circle
       cx="64"
       cy="64"
       r="16"
       stroke="#ffffff"
       fill="none"
       stroke-width="3.58019px"
       stroke-linecap="square"
       id="circle2" />
  </g>
  <g
     transform="matrix(2.1116365,0,0,2.1116365,297.07776,25.37104)"
     id="g5">
    <g
       fill="none"
       id="g4">
      <path
         d="M 128,128 C 128,57.3076 70.6925,6.18013e-6 1.11901e-5,0 L 0,128 Z"
         fill="#ee5432"
         id="path2" />
      <path
         d="M 128,64 H 0"
         stroke="#ffffff"
         fill="none"
         stroke-width="3.58019px"
         stroke-linecap="square"
         id="path3" />
      <circle
         cx="64"
         cy="96"
         r="11.5"
         fill="#ee5432"
         stroke="#ee5432"
         stroke-width="3.58019px"
         stroke-linecap="square"
         id="circle3" />
      <circle
         cx="64"
         cy="96"
         r="9"
         fill="#ffffff"
         stroke="#ffffff"
         stroke-width="3.58019px"
         stroke-linecap="square"
         id="circle4" />
    </g>
  </g>
  <g
     transform="matrix(2.1116365,0,0,2.1116365,19.228224,303.22058)"
     id="g10">
    <g
       fill="none"
       id="g9">
      <path
         d="M 0,0 C 0,70.6925 57.3075,128 128,128 V 0 Z"
         fill="#ee5432"
         id="path5" />
      <g
         fill="none"
         id="g8">
        <path
           d="M 128,96 C 101.492,96 77.4939,85.2564 60.1217,67.8862"
           stroke="#ffffff"
           fill="none"
           stroke-width="3.58019px"
           stroke-linecap="square"
           id="path6" />
        <path
           d="M 128,64 C 110.328,64 94.3287,56.8374 82.7471,45.2568"
           stroke="#ffffff"
           fill="none"
           stroke-width="3.58019px"
           stroke-linecap="square"
           id="path7" />
        <path
           d="m 128,32.3716 c -8.836,0 -16.836,-3.5813 -22.626,-9.3716"
           stroke="#ffffff"
           fill="none"
           stroke-width="3.58019px"
           stroke-linecap="square"
           id="path8" />
      </g>
    </g>
  </g>
  <g
     transform="matrix(2.1116365,0,0,2.1116365,297.07776,303.22058)"
     id="g11">
    <path
       d="M 5.59506e-6,128 C 70.6925,128 128,70.6925 128,0 L 0,5.59506e-6 Z"
       fill="#ee5432"
       id="path10" />
    <path
       fill-rule="evenodd"
       clip-rule="evenodd"
       d="m 80,64 c 0,8.8366 -7.1634,16 -16,16 -8.8366,0 -16,-7.1634 -16,-16 0,-8.8366 7.1634,-16 16,-16 8.8366,0 16,7.1634 16,16 z m -16,8 c 4.4183,0 8,-3.5817 8,-8 0,-4.4183 -3.5817,-8 -8,-8 -4.4183,0 -8,3.5817 -8,8 0,4.4183 3.5817,8 8,8 z"
       fill="#ffffff"
       id="path11" />
  </g>
</svg>
